# xmcd CD database file
# Copyright (C) 1995 Ti Kan
#
# Track frame offsets:
#	150
#	15405
#	25017
#	38192
#	53900
#	76705
#	95667
#	108780
#	122292
#	141262
#	161452
#	172972
#	191320
#	208415
#	218120
#	233537
#	251847
#	266675
#	282262
#	297990
#
# Disc length: 4395 seconds
#
# Revision: 1
# Processed by: cddbd v1.4b41PL1 Copyright (c) Steve Scherf et al.
# Submitted via: NotifyCDPlayer(CDDB) 1.05
#
DISCID=0e112914
DTITLE=New Swing Quartet and Golden Gate Quartet - Slavnostni koncert ob 25. l
DTITLE=etnici New Swing Quarteta
DYEAR=1900
DGENRE=
TTITLE0=Gospel Medley
TTITLE1=Old Time Religion
TTITLE2=Take My Hand, Precious Lord
TTITLE3=I Want Two Wings
TTITLE4=Where Could I Go But To The Lord
TTITLE5=Why Me, Lord
TTITLE6=Ezekijel Saw The Wheel
TTITLE7=Ave Maria
TTITLE8=I Pitched My Tent
TTITLE9=Let The Church Roll On
TTITLE10=I'm Gonna Walk Dem Golden Stairs
TTITLE11=Go, Tell It On The Mountain
TTITLE12=I Want Two Wings
TTITLE13=Speech
TTITLE14=Joshua Fit The Battle Of Jericho
TTITLE15=Sometimes I Feel Like A Motherless Child
TTITLE16=Put Your Hand In The Hand
TTITLE17=Lord In My Heart
TTITLE18=Shadrack
TTITLE19=Gospel Medley
EXTD=
EXTT0=
EXTT1=
EXTT2=
EXTT3=
EXTT4=
EXTT5=
EXTT6=
EXTT7=
EXTT8=
EXTT9=
EXTT10=
EXTT11=
EXTT12=
EXTT13=
EXTT14=
EXTT15=
EXTT16=
EXTT17=
EXTT18=
EXTT19=
PLAYORDER=
